<?xml version="1.0" encoding="UTF-8"?>
<svg version="1.1" xmlns="http://www.w3.org/2000/svg" width="800" height="800">
<path d="M0 0 C264 0 528 0 800 0 C800 264 800 528 800 800 C536 800 272 800 0 800 C0 536 0 272 0 0 Z " fill="#FEFEFE" transform="translate(0,0)"/>
<path d="M0 0 C19 0 19 0 23.5625 4.5 C24.75808728 6.63961434 25.90087126 8.80927079 27 11 C28.06916712 12.73189057 29.13973224 14.46309976 30.2355957 16.17822266 C31.49140382 18.14700736 32.71660064 20.1328898 33.94140625 22.12109375 C37.81798817 28.35431721 41.85214085 34.4857016 45.875 40.625 C46.24752899 41.19388947 46.62005798 41.76277893 47.00387573 42.34890747 C51.5614153 49.32931353 51.5614153 49.32931353 56.23486328 56.23193359 C58 59 58 59 58 61 C58.66 61 59.32 61 60 61 C60.22171875 60.33871094 60.4434375 59.67742187 60.671875 58.99609375 C62.43178263 55.02594918 64.79986812 51.63670813 67.25 48.0625 C71.35790478 41.99399002 75.37957276 35.88354412 79.28710938 29.68383789 C80.47067289 27.81132713 81.66340951 25.94458309 82.86523438 24.08374023 C86.06159032 19.13351116 89.08519831 14.18119152 91.78393555 8.94042969 C93.8326779 5.70474734 96.48970278 2.89229897 99 0 C104.94 0 110.88 0 117 0 C117 49.17 117 98.34 117 149 C110.73 149 104.46 149 98 149 C97.67 112.7 97.34 76.4 97 39 C93.04 45.27 89.08 51.54 85 58 C83.040625 61.09375 81.08125 64.1875 79.0625 67.375 C72.6396872 77.54090899 66.3121184 87.76508747 60 98 C56.43280394 94.76444802 54.02746328 91.08908169 51.5625 87 C50.67875269 85.56017195 49.79325057 84.12141992 48.90625 82.68359375 C48.43703125 81.92288574 47.9678125 81.16217773 47.484375 80.37841797 C44.89963554 76.23688313 42.23063781 72.15061641 39.5625 68.0625 C39.01891846 67.2286377 38.47533691 66.39477539 37.9152832 65.53564453 C36.82095294 63.85737925 35.72630935 62.17931822 34.63134766 60.50146484 C31.99790155 56.46340906 29.3724476 52.42020479 26.75 48.375 C26.05112671 47.30004272 26.05112671 47.30004272 25.33813477 46.20336914 C22.11506064 41.23012128 22.11506064 41.23012128 21 39 C20.67 75.3 20.34 111.6 20 149 C13.4 149 6.8 149 0 149 C0 99.83 0 50.66 0 0 Z " fill="#10949E" transform="translate(114,316)"/>
<path d="M0 0 C0.8146875 0.49628906 1.629375 0.99257813 2.46875 1.50390625 C11.58520326 7.80945309 17.53534345 18.271495 20 29 C19.67 29.99 19.34 30.98 19 32 C16.234375 32.94921875 16.234375 32.94921875 12.75 33.6875 C11.04070312 34.06455078 11.04070312 34.06455078 9.296875 34.44921875 C6.44136793 34.92626436 3.8833448 35.11381624 1 35 C0.76925781 34.33613281 0.53851563 33.67226563 0.30078125 32.98828125 C-1.70570275 27.55570599 -3.48112911 23.82365999 -8 20 C-8.45375 19.46375 -8.9075 18.9275 -9.375 18.375 C-14.73840826 13.83673147 -20.35078808 13.52021614 -27.12890625 13.71484375 C-33.63011108 14.36054164 -37.72871164 16.99649078 -42 22 C-44.63728086 25.64195928 -44.39934871 29.67372228 -44 34 C-43.39261878 37.32778425 -43.39261878 37.32778425 -42 40 C-40.67404541 40.68122438 -39.33875284 41.34428432 -38 42 C-35.97184067 43.51548572 -33.98109628 45.05075181 -32 46.625 C-27.88968782 49.84096534 -23.75311703 52.90114075 -19.375 55.75 C17.22838123 79.79530629 17.22838123 79.79530629 21 96 C22.28904542 107.69431292 20.86313411 117.89838256 13.9375 127.6875 C6.29146651 136.76209176 -4.57242137 143.94294075 -16.51708984 145.28222656 C-32.50119377 146.41399553 -44.71427793 144.1997439 -57.625 134.16015625 C-64.15203118 128.22356374 -67.81481388 120.48366377 -70 112 C-70.1015625 109.171875 -70.1015625 109.171875 -70 107 C-67.37569876 106.3304744 -64.75063343 105.66426282 -62.125 105 C-61.37863281 104.80921875 -60.63226563 104.6184375 -59.86328125 104.421875 C-54.2265625 103 -54.2265625 103 -52 103 C-51.5875 103.94101562 -51.175 104.88203125 -50.75 105.8515625 C-46.8368669 114.42143875 -43.40378682 119.85831313 -34.71484375 124.12109375 C-26.58528029 126.75296681 -16.54284619 125.84258202 -9 122 C-7.64136599 121.03465478 -6.29656863 120.04722851 -5 119 C-4.34 119 -3.68 119 -3 119 C-2.71125 118.2575 -2.4225 117.515 -2.125 116.75 C-1 114 -1 114 0.0390625 112.22265625 C1.29909052 109.3082012 1.41061205 106.85704789 1.5 103.6875 C1.5515625 102.59824219 1.603125 101.50898438 1.65625 100.38671875 C0.48744611 94.35485581 -3.70132141 90.7846354 -8.55859375 87.296875 C-9.84540589 86.43861341 -11.13865913 85.58994693 -12.4375 84.75 C-13.86205551 83.80024136 -15.28519987 82.84836321 -16.70703125 81.89453125 C-17.4232666 81.41580566 -18.13950195 80.93708008 -18.87744141 80.44384766 C-22.18842184 78.19158882 -25.40845985 75.821892 -28.625 73.4375 C-32.94394843 70.23943915 -37.28119967 67.07624054 -41.67333984 63.97924805 C-44.46345266 62.0061811 -47.23063816 60.00207731 -50 58 C-50.7321875 57.49339844 -51.464375 56.98679687 -52.21875 56.46484375 C-58.43134345 51.79177456 -62.65769305 43.62607352 -64 36 C-64.92342402 24.69184025 -62.7902368 17.05364907 -56 8 C-42.75210284 -7.1404539 -17.21206319 -10.70307094 0 0 Z " fill="#10939E" transform="translate(418,320)"/>
<path d="M0 0 C5.94 0 11.88 0 18 0 C18 27.72 18 55.44 18 84 C22.99524198 83.54490149 22.99524198 83.54490149 25.11328125 80.46484375 C25.86121984 79.29846246 26.59306871 78.12167738 27.3125 76.9375 C28.17592629 75.58129392 29.04060308 74.22588351 29.90625 72.87109375 C30.38707031 72.10909668 30.86789062 71.34709961 31.36328125 70.56201172 C34.60289363 65.49093589 37.96933574 60.50312362 41.3125 55.5 C41.99417236 54.47382568 42.67584473 53.44765137 43.37817383 52.39038086 C46.83437252 47.19481861 50.33343933 42.04949941 54 37 C57.66398299 38.68970089 60.90832572 40.87300211 64.25 43.125 C65.32765625 43.84945312 66.4053125 44.57390625 67.515625 45.3203125 C68.33546875 45.87460937 69.1553125 46.42890625 70 47 C68.41449916 50.42985896 66.41509823 53.40700253 64.25 56.5 C63.68357788 57.31585571 63.68357788 57.31585571 63.10571289 58.14819336 C60.53456167 61.84299173 57.92110029 65.50569346 55.29296875 69.16015625 C54.65649414 70.0521875 54.02001953 70.94421875 53.36425781 71.86328125 C52.09152596 73.64626698 50.81104803 75.42375166 49.52246094 77.1953125 C48.64315918 78.43087891 48.64315918 78.43087891 47.74609375 79.69140625 C47.21685303 80.42560791 46.6876123 81.15980957 46.14233398 81.91625977 C44.67952307 84.18853099 44.67952307 84.18853099 45 88 C45.70125 88.53625 46.4025 89.0725 47.125 89.625 C55.2795697 96.36138366 59.73345916 108.88997569 64.625 118.1875 C65.75515442 120.33135548 66.88613595 122.47476698 68.0184021 124.61750793 C68.71655243 125.93913112 69.41344705 127.26141877 70.10879517 128.58451843 C71.75734572 131.70935084 73.4531847 134.78715656 75.24365234 137.83325195 C77 141 77 141 77 143 C70.07 143 63.14 143 56 143 C54.90300781 140.93878906 53.80601562 138.87757813 52.67578125 136.75390625 C51.59695367 134.72816881 50.51784996 132.7025787 49.4387207 130.67700195 C48.69657078 129.28360059 47.95470197 127.89004946 47.21313477 126.49633789 C46.85469482 125.82272217 46.49625488 125.14910645 46.12695312 124.45507812 C45.77317596 123.78834076 45.4193988 123.12160339 45.05490112 122.43466187 C44.34479613 121.10764669 43.62614098 119.78517095 42.8989563 118.46743774 C41.36549778 115.67634498 40.02374221 113.06740553 38.96240234 110.05419922 C38.05226106 107.18939203 38.05226106 107.18939203 35 104 C29.39 103.67 23.78 103.34 18 103 C18 116.2 18 129.4 18 143 C12.06 143 6.12 143 0 143 C0 95.81 0 48.62 0 0 Z " fill="#0F929D" transform="translate(465,321)"/>
<path d="M0 0 C5.94 0 11.88 0 18 0 C18.01458252 2.11937988 18.02916504 4.23875977 18.04418945 6.42236328 C18.09459188 13.43534751 18.16119687 20.44811101 18.23571491 27.46087837 C18.28038721 31.71152973 18.31965013 35.96208594 18.34643555 40.21289062 C18.37250005 44.31739652 18.41292439 48.42153566 18.46318626 52.52581406 C18.47983377 54.08939924 18.49136122 55.65304783 18.49761391 57.21670914 C18.50727838 59.41195103 18.53536356 61.60625912 18.56762695 63.80126953 C18.57873001 65.04925323 18.58983307 66.29723694 18.60127258 67.58303833 C19.04264192 71.36542713 20.00916956 73.76929351 22 77 C27.42894618 81.18481268 32.1442161 82.86766605 39 82 C44.98370951 80.10642104 47.86158968 77.50532681 51 72 C51.60986032 68.49515144 51.60986032 68.49515144 51.54589844 64.70947266 C51.55623611 64.00633942 51.56657379 63.30320618 51.57722473 62.57876587 C51.60652974 60.27362757 51.60814919 57.96937199 51.609375 55.6640625 C51.62436508 54.05836322 51.64109397 52.45267931 51.65948486 50.84701538 C51.70307812 46.63518546 51.72313949 42.4235635 51.73822021 38.21154785 C51.7578204 33.90783431 51.79978708 29.60434441 51.83984375 25.30078125 C51.91505908 16.86721876 51.96333397 8.43381828 52 0 C57.94 0 63.88 0 70 0 C70.0927104 16.15977999 70.16403683 32.3194498 70.20724869 48.47943115 C70.2278486 55.98328725 70.25591967 63.48697478 70.30175781 70.99072266 C70.34170473 77.53320717 70.3674515 84.07556956 70.37635398 90.61817265 C70.38155555 94.08049202 70.39372654 97.54246209 70.42292023 101.00466919 C70.45529346 104.87557377 70.45595437 108.74614081 70.45410156 112.6171875 C70.46848267 113.75726761 70.48286377 114.89734772 70.49768066 116.07197571 C70.4494552 125.39287061 68.11283758 131.22740426 61.625 138.125 C60.84511719 138.9603125 60.06523437 139.795625 59.26171875 140.65625 C56.54140724 143.47522566 53.80588281 146.26606291 51 149 C47.11602311 147.44997253 44.97020381 144.99523379 42.25 141.875 C41.45078125 140.96492187 40.6515625 140.05484375 39.828125 139.1171875 C39.22484375 138.41851562 38.6215625 137.71984375 38 137 C38.875 135.97916667 39.75 134.95833333 40.625 133.9375 C41.16769531 133.30328125 41.71039063 132.6690625 42.26953125 132.015625 C43.40846645 130.68900974 44.55159577 129.36598187 45.69921875 128.046875 C46.23160156 127.43328125 46.76398438 126.8196875 47.3125 126.1875 C48.04919922 125.34251953 48.04919922 125.34251953 48.80078125 124.48046875 C51.18119356 121.54178385 51.17976723 119.26346093 51.31640625 115.5546875 C51.37924805 113.94013672 51.37924805 113.94013672 51.44335938 112.29296875 C51.48267578 111.16503906 51.52199219 110.03710938 51.5625 108.875 C51.62727539 107.17150391 51.62727539 107.17150391 51.69335938 105.43359375 C51.7996604 102.62252232 51.90169405 99.81136055 52 97 C51.113125 97.474375 50.22625 97.94875 49.3125 98.4375 C41.01205926 102.35280223 31.49382935 102.03523794 22.8125 99.4375 C13.72092266 96.02667295 8.02467448 90.99715694 3.19140625 82.625 C0.60627919 76.92924464 -0.24863532 71.73128924 -0.22705078 65.50415039 C-0.22734283 64.79111755 -0.22763489 64.07808472 -0.22793579 63.34344482 C-0.22655419 61.0113869 -0.21104896 58.67965763 -0.1953125 56.34765625 C-0.1915782 54.72098464 -0.1887332 53.09431078 -0.18673706 51.46763611 C-0.17913346 47.20480034 -0.15951339 42.94210279 -0.1373291 38.67932129 C-0.11679986 34.3220405 -0.10772026 29.96473718 -0.09765625 25.60742188 C-0.07626413 17.07154436 -0.04110898 8.53580535 0 0 Z " fill="#0B939D" transform="translate(255,363)"/>
<path d="M0 0 C6.27 0 12.54 0 19 0 C19.00364563 1.58218323 19.00729126 3.16436646 19.01104736 4.79449463 C19.04794678 19.68612647 19.10542593 34.57751682 19.18390274 49.4689827 C19.22372133 57.12532149 19.25609941 64.78155709 19.27099609 72.43798828 C19.2839981 79.1109306 19.31092528 85.78364612 19.35461307 92.45646071 C19.37726097 95.99010669 19.39290872 99.52347258 19.39188385 103.05719757 C19.39100087 107.00093124 19.42120548 110.94409145 19.45410156 114.88769531 C19.4490712 116.060858 19.44404083 117.23402069 19.43885803 118.44273376 C19.45277084 119.51682999 19.46668365 120.59092621 19.48101807 121.6975708 C19.48470524 122.6304253 19.48839241 123.5632798 19.49219131 124.52440262 C20.15665512 127.76370298 21.45208434 128.95699633 24 131 C26.64184541 131.79681318 26.64184541 131.79681318 29 132 C25 137.33333333 21 142.66666667 17 148 C13.27345339 146.43502335 10.80235296 144.1341425 7.9375 141.3125 C7.08027344 140.48363281 6.22304688 139.65476562 5.33984375 138.80078125 C-0.5520487 131.7482155 -0.42151606 125.22666943 -0.34057617 116.36352539 C-0.34101425 115.1042926 -0.34145233 113.84505981 -0.34190369 112.54766846 C-0.34276087 109.11211193 -0.32518052 105.67687263 -0.30418181 102.24138951 C-0.28536847 98.64462109 -0.28366092 95.04784458 -0.28010559 91.45103455 C-0.27079875 84.64779057 -0.24620355 77.84469203 -0.21605712 71.04151195 C-0.18247059 63.2930291 -0.16601644 55.54453913 -0.15097082 47.79600155 C-0.11965265 31.86391464 -0.06631121 15.93198183 0 0 Z " fill="#15959F" transform="translate(656,321)"/>
<path d="M0 0 C6.27 0 12.54 0 19 0 C19.00364563 1.59693192 19.00729126 3.19386383 19.01104736 4.83918762 C19.04793355 19.86357531 19.1053976 34.8877233 19.18390274 49.9119463 C19.22373579 57.63669502 19.25610649 65.36134125 19.27099609 73.08618164 C19.28399064 79.81807715 19.31089859 86.54974752 19.35461307 93.28151625 C19.37727786 96.84698799 19.39290771 100.41218154 19.39188385 103.9777317 C19.39100212 107.95519551 19.42117934 111.93208883 19.45410156 115.90942383 C19.4490712 117.09553253 19.44404083 118.28164124 19.43885803 119.50369263 C19.45277084 120.58482834 19.46668365 121.66596405 19.48101807 122.77986145 C19.48470524 123.72101209 19.48839241 124.66216272 19.49219131 125.63183308 C19.79711263 128.14678653 19.79711263 128.14678653 21.89181137 129.78328991 C23.95617725 130.97470834 25.66381493 131.58282409 28 132 C26.68129935 136.68871343 23.87438329 139.62831989 20.65625 143.1328125 C18.83198095 145.10343191 18.83198095 145.10343191 17 148 C13.24947287 146.43365456 10.80164365 144.10118372 7.9375 141.25 C7.08027344 140.40953125 6.22304688 139.5690625 5.33984375 138.703125 C-0.5283298 131.92386608 -0.4183859 125.99903046 -0.34057617 117.38525391 C-0.34101425 116.11641357 -0.34145233 114.84757324 -0.34190369 113.5402832 C-0.34276204 110.07367824 -0.32516259 106.60738669 -0.30418181 103.14085436 C-0.28538811 99.51338332 -0.28366246 95.88590455 -0.28010559 92.25839233 C-0.27079301 85.39490863 -0.24618997 78.53156883 -0.21605712 71.6681484 C-0.18248853 63.85197517 -0.16602094 56.03579495 -0.15097082 48.21956754 C-0.11963963 32.14629184 -0.06628803 16.07316998 0 0 Z " fill="#1495A0" transform="translate(607,321)"/>
<path d="M0 0 C5.94 0 11.88 0 18 0 C18 33.33 18 66.66 18 101 C12.06 101 6.12 101 0 101 C0 67.67 0 34.34 0 0 Z " fill="#09929D" transform="translate(562,363)"/>
<path d="M0 0 C5.94 0 11.88 0 18 0 C18 8.25 18 16.5 18 25 C12.06 25 6.12 25 0 25 C0 16.75 0 8.5 0 0 Z " fill="#15959E" transform="translate(562,330)"/>
<path d="M0 0 C0.66 0 1.32 0 2 0 C2 46.86 2 93.72 2 142 C7.94 142 13.88 142 20 142 C20 128.8 20 115.6 20 102 C25.61 102 31.22 102 37 102 C37.66 103.65 38.32 105.3 39 107 C38.01 106.67 37.02 106.34 36 106 C36 105.01 36 104.02 36 103 C31.38 103 26.76 103 22 103 C22.00785522 104.76428345 22.00785522 104.76428345 22.01586914 106.56420898 C22.03391663 110.91202031 22.04543108 115.2598283 22.05493164 119.60766602 C22.05997244 121.4924373 22.06680498 123.37720465 22.07543945 125.26196289 C22.08751617 127.96501636 22.09323068 130.66801831 22.09765625 133.37109375 C22.10281754 134.21900986 22.10797882 135.06692596 22.11329651 135.9405365 C22.11349195 137.96071068 22.06206211 139.98077934 22 142 C20.41062444 143.58937556 18.76100154 143.12981143 16.5625 143.1328125 C15.22058594 143.13474609 15.22058594 143.13474609 13.8515625 143.13671875 C12.91054688 143.13285156 11.96953125 143.12898437 11 143.125 C10.05898438 143.12886719 9.11796875 143.13273438 8.1484375 143.13671875 C7.25382812 143.13542969 6.35921875 143.13414062 5.4375 143.1328125 C4.61121094 143.13168457 3.78492188 143.13055664 2.93359375 143.12939453 C1 143 1 143 0 142 C-0.09646028 140.16505514 -0.12187344 138.32635413 -0.12025452 136.48887634 C-0.12162918 135.2926918 -0.12300385 134.09650726 -0.12442017 132.86407471 C-0.12088057 131.52648901 -0.11724575 130.18890356 -0.11352539 128.85131836 C-0.11324352 127.45217389 -0.11340125 126.05302927 -0.1139679 124.65388489 C-0.11425588 120.84413541 -0.10835898 117.03441714 -0.10139394 113.22467494 C-0.09516059 109.24748691 -0.09455662 105.27029824 -0.09336853 101.29310608 C-0.09025516 93.75661461 -0.08204169 86.22013757 -0.07201904 78.68365246 C-0.06085808 70.10580172 -0.0553475 61.5279503 -0.05032361 52.9500941 C-0.03985908 35.30005454 -0.02225953 17.65002843 0 0 Z " fill="#CBF6F7" transform="translate(463,322)"/>
<path d="M0 0 C5.94 0 11.88 0 18 0 C18 33.33 18 66.66 18 101 C12.06 101 6.12 101 0 101 C0 67.67 0 34.34 0 0 Z M1 1 C1 33.34 1 65.68 1 99 C9.23230364 99.6037173 9.23230364 99.6037173 16 97 C16.12533087 94.01776826 16.18611578 91.05758366 16.20532227 88.07397461 C16.21522186 87.13748581 16.22512146 86.20099701 16.23532104 85.23612976 C16.26703753 82.12489392 16.29173341 79.01364278 16.31640625 75.90234375 C16.33696703 73.75142508 16.35796325 71.60051054 16.37937927 69.44960022 C16.4346905 63.77622811 16.48405972 58.10281899 16.53222656 52.42938232 C16.58237567 46.64494516 16.63809606 40.86056204 16.69335938 35.07617188 C16.80105158 23.71749402 16.90247182 12.35876935 17 1 C11.72 1 6.44 1 1 1 Z " fill="#309BA4" transform="translate(562,363)"/>
<path d="M0 0 C6.6 0.33 13.2 0.66 20 1 C20 41.92 20 82.84 20 125 C19.67 125 19.34 125 19 125 C19 84.74 19 44.48 19 3 C13.06 3 7.12 3 1 3 C1.01047363 5.17062012 1.02094727 7.34124023 1.03173828 9.57763672 C1.06483319 16.73816415 1.08695171 23.89869491 1.10362434 31.05927849 C1.114075 35.40202749 1.12825747 39.74469833 1.15087891 44.08740234 C1.17256174 48.27598975 1.18455896 52.46450184 1.18975449 56.65314102 C1.19345847 58.2535839 1.20069113 59.85402251 1.21146011 61.45443344 C1.22591463 63.69090532 1.22798051 65.92706337 1.22705078 68.16357422 C1.231492 69.43820526 1.23593323 70.7128363 1.24050903 72.02609253 C1 75 1 75 -1 77 C-1.02313836 67.25576086 -1.04092273 57.51152822 -1.05181217 47.76726723 C-1.05703772 43.24294695 -1.06412944 38.71864542 -1.07543945 34.19433594 C-1.08627995 29.83069041 -1.09227932 25.46706295 -1.09487724 21.103405 C-1.09672939 19.43598521 -1.10034599 17.76856645 -1.10573006 16.10115433 C-1.11295589 13.77135303 -1.11399029 11.44162705 -1.11352539 9.11181641 C-1.11712067 8.41770157 -1.12071594 7.72358673 -1.12442017 7.00843811 C-1.11405216 2.22810432 -1.11405216 2.22810432 0 0 Z " fill="#B5EAEE" transform="translate(306,360)"/>
<path d="M0 0 C5.94 0 11.88 0 18 0 C18 23.43 18 46.86 18 71 C17.67 71 17.34 71 17 71 C17 48.23 17 25.46 17 2 C12.05 2 7.1 2 2 2 C2 26.09 2 50.18 2 75 C0 73 0 73 -0.24050903 69.98812866 C-0.23606781 68.69573273 -0.23162659 67.40333679 -0.22705078 66.07177734 C-0.22734283 65.35947464 -0.22763489 64.64717194 -0.22793579 63.9132843 C-0.22654016 61.55404566 -0.21096827 59.19512111 -0.1953125 56.8359375 C-0.19158319 55.20211968 -0.18873583 53.56829962 -0.18673706 51.93447876 C-0.1790941 47.63047124 -0.15943999 43.32659832 -0.1373291 39.02264404 C-0.1168849 34.63230205 -0.1077384 30.24193835 -0.09765625 25.8515625 C-0.07619465 17.2343063 -0.04100718 8.61718539 0 0 Z " fill="#3599A0" transform="translate(255,363)"/>
<path d="M0 0 C5.94 0 11.88 0 18 0 C18 41.25 18 82.5 18 125 C17.67 125 17.34 125 17 125 C17 84.74 17 44.48 17 3 C11.72 2.67 6.44 2.34 1 2 C1.0611499 5.07417236 1.0611499 5.07417236 1.12353516 8.21044922 C1.25654873 14.97169918 1.37842403 21.73311657 1.49477577 28.49467278 C1.56568392 32.59536793 1.6403762 36.69592221 1.72363281 40.79638672 C1.80379883 44.75142586 1.87413417 48.70652746 1.93757248 52.66186905 C1.96355384 54.17305092 1.99311463 55.68417551 2.02626419 57.19521713 C2.07199001 59.307027 2.10513718 61.41867981 2.13525391 63.53076172 C2.16856308 65.33611893 2.16856308 65.33611893 2.20254517 67.177948 C2 70 2 70 0 72 C0 48.24 0 24.48 0 0 Z " fill="#1E8B93" transform="translate(307,363)"/>
<path d="M0 0 C6.27 0 12.54 0 19 0 C19.97501488 3.90005954 20.11450635 6.92335528 20.09765625 10.92407227 C20.09619598 11.612341 20.09473572 12.30060974 20.0932312 13.00973511 C20.08943392 14.49987572 20.08332657 15.99001186 20.07516479 17.48013496 C20.06238384 19.83783496 20.05588134 22.19547861 20.05102539 24.5532074 C20.03960657 29.55633024 20.0203592 34.55940659 20 39.5625 C19.976411 45.36372993 19.95601899 51.1649333 19.94406128 56.96619987 C19.93757359 59.29004845 19.92506687 61.61381568 19.91235352 63.93763733 C19.90872142 65.36019825 19.90536963 66.78275993 19.90234375 68.20532227 C19.89710693 69.44790298 19.89187012 70.6904837 19.88647461 71.97071838 C19.8599685 75.04736885 19.8599685 75.04736885 21 78 C21.66 78 22.32 78 23 78 C23 78.66 23 79.32 23 80 C23.99 80 24.98 80 26 80 C26.33 80.99 26.66 81.98 27 83 C22.57673622 81.64844718 20.59587018 79.80109562 18 76 C16.83964495 72.51893486 16.87997296 69.8152767 16.88647461 66.1418457 C16.88632858 65.44890411 16.88618256 64.75596252 16.8860321 64.04202271 C16.88672837 61.75324363 16.8945074 59.4645461 16.90234375 57.17578125 C16.90420894 55.58823186 16.90563237 54.00068189 16.90663147 52.41313171 C16.91044866 48.2357728 16.92027214 44.05844869 16.93133545 39.88110352 C16.94156672 35.61800609 16.94613277 31.35490304 16.95117188 27.09179688 C16.96189511 18.72784684 16.97948547 10.36393176 17 2 C11.39 2 5.78 2 0 2 C0 1.34 0 0.68 0 0 Z " fill="#C7F0F2" transform="translate(256,361)"/>
<path d="M0 0 C0.33 0 0.66 0 1 0 C1 41.58 1 83.16 1 126 C4.60661066 127.80330533 7.08393425 128.46599103 11 129 C10.51236749 136.43639576 10.51236749 136.43639576 8.125 139.0625 C6 140 6 140 3 139 C4.98 136.36 6.96 133.72 9 131 C7.88625 130.8453125 7.88625 130.8453125 6.75 130.6875 C3.70158068 129.92539517 2.26019609 129.16620743 0 127 C-0.49219131 124.64745045 -0.49219131 124.64745045 -0.48101807 121.81782532 C-0.48651672 120.74510376 -0.49201538 119.6723822 -0.49768066 118.56715393 C-0.48329956 117.39039597 -0.46891846 116.213638 -0.45410156 115.0012207 C-0.45468567 113.76207916 -0.45526978 112.52293762 -0.45587158 111.24624634 C-0.45356034 107.84739191 -0.43348554 104.44950634 -0.40557575 101.05082345 C-0.38058983 97.49942132 -0.37822234 93.94800662 -0.37347412 90.39653015 C-0.361036 83.67101315 -0.32820334 76.94575588 -0.28807616 70.22035331 C-0.24338425 62.56387603 -0.22137795 54.90738643 -0.20129442 47.25081122 C-0.15947123 31.50039033 -0.08910323 15.75022864 0 0 Z " fill="#E4FEFF" transform="translate(626,322)"/>
<path d="M0 0 C5.61 0 11.22 0 17 0 C17.66 1.65 18.32 3.3 19 5 C18.01 4.67 17.02 4.34 16 4 C16 3.01 16 2.02 16 1 C11.38 1 6.76 1 2 1 C2 13.87 2 26.74 2 40 C1.01 40 0.02 40 -1 40 C-0.67 26.8 -0.34 13.6 0 0 Z " fill="#DFFDFD" transform="translate(483,424)"/>
<path d="M0 0 C0.08696177 3.93736123 0.14037835 7.87447628 0.1875 11.8125 C0.21263672 12.93205078 0.23777344 14.05160156 0.26367188 15.20507812 C0.27333984 16.27822266 0.28300781 17.35136719 0.29296875 18.45703125 C0.31653442 19.9416687 0.31653442 19.9416687 0.34057617 21.45629883 C0 24 0 24 -3 27 C-2.67 18.75 -2.34 10.5 -2 2 C-2.66 1.67 -3.32 1.34 -4 1 C-2 0 -2 0 0 0 Z " fill="#CAF7F9" transform="translate(307,460)"/>
<path d="M0 0 C-5.88955071 3.1502248 -10.47549632 4.14166542 -17.125 4.125 C-18.67574219 4.12886719 -18.67574219 4.12886719 -20.2578125 4.1328125 C-23 4 -23 4 -26 3 C-26 2.34 -26 1.68 -26 1 C-25.01 1.02320313 -24.02 1.04640625 -23 1.0703125 C-16.05796327 1.18191233 -6.00235707 -2.00078569 0 0 Z " fill="#309AA0" transform="translate(307,460)"/>
<path d="M0 0 C4.95 0.99 4.95 0.99 10 2 C10.33 2.99 10.66 3.98 11 5 C10.01 5.66 9.02 6.32 8 7 C7.484375 7.86625 6.96875 8.7325 6.4375 9.625 C5.963125 10.40875 5.48875 11.1925 5 12 C4.34 12 3.68 12 3 12 C3 12.66 3 13.32 3 14 C2.34 14 1.68 14 1 14 C2.52708963 10.56404834 4.59927045 7.88087546 7 5 C6.21625 4.731875 5.4325 4.46375 4.625 4.1875 C2 3 2 3 0 0 Z " fill="#DBF9FA" transform="translate(677,449)"/>
<path d="M0 0 C3.69900008 0.88776002 7.34550461 1.94581864 11 3 C10.51236749 10.43639576 10.51236749 10.43639576 8.125 13.0625 C6 14 6 14 3 13 C4.98 10.36 6.96 7.72 9 5 C8.2575 4.9175 7.515 4.835 6.75 4.75 C3.48778646 3.8603054 2.19045122 2.51496251 0 0 Z " fill="#D4F7F7" transform="translate(626,448)"/>
<path d="M0 0 C0.66 0 1.32 0 2 0 C2.05434116 2.5419589 2.0938339 5.08273682 2.125 7.625 C2.14175781 8.33785156 2.15851563 9.05070312 2.17578125 9.78515625 C2.21684602 14.2612164 1.69086567 17.77949278 0 22 C-0.66 20.68 -1.32 19.36 -2 18 C-1.34 18 -0.68 18 0 18 C0 12.06 0 6.12 0 0 Z " fill="#3E9EA5" transform="translate(437,416)"/>
<path d="M0 0 C5.94 0 11.88 0 18 0 C17.67 0.99 17.34 1.98 17 3 C14.35319096 2.88660796 11.70822482 2.75987127 9.0625 2.625 C8.30775391 2.5940625 7.55300781 2.563125 6.77539062 2.53125 C4.84492605 2.4273685 2.92057919 2.22104386 1 2 C0.67 1.34 0.34 0.68 0 0 Z " fill="#31929C" transform="translate(307,363)"/>
<path d="M0 0 C1.87939453 -0.34057617 1.87939453 -0.34057617 4.1328125 -0.29296875 C4.93847656 -0.28330078 5.74414062 -0.27363281 6.57421875 -0.26367188 C7.41597656 -0.23853516 8.25773438 -0.21339844 9.125 -0.1875 C9.97449219 -0.17396484 10.82398438 -0.16042969 11.69921875 -0.14648438 C13.79974837 -0.11108219 15.89995293 -0.05727401 18 0 C18 0.33 18 0.66 18 1 C12.39 1 6.78 1 1 1 C0.34 2.98 -0.32 4.96 -1 7 C-1.99 7.33 -2.98 7.66 -4 8 C-2.87548273 5.0280615 -1.77706209 2.66559313 0 0 Z " fill="#1D8E8E" transform="translate(213,316)"/>
<path d="M0 0 C0.64324219 0.16371094 1.28648437 0.32742188 1.94921875 0.49609375 C5.92840171 1.15334676 9.7881437 1.106353 13.8125 1.0625 C14.60076172 1.05798828 15.38902344 1.05347656 16.20117188 1.04882812 C18.13414761 1.03711312 20.06708393 1.01917998 22 1 C21.67 1.66 21.34 2.32 21 3 C14.4 3 7.8 3 1 3 C0.67 2.01 0.34 1.02 0 0 Z " fill="#DEFAFA" transform="translate(279,462)"/>
<path d="M0 0 C2.76390737 2.40339772 3.04065919 3.16263678 4 7 C-2.93 7 -9.86 7 -17 7 C-17 6.67 -17 6.34 -17 6 C-11.06 6 -5.12 6 1 6 C0.67 4.02 0.34 2.04 0 0 Z " fill="#34979C" transform="translate(538,457)"/>
<path d="M0 0 C1.921875 0.8046875 1.921875 0.8046875 4 2 C5.25 5.125 5.25 5.125 6 8 C6.99 8 7.98 8 9 8 C8.67 9.98 8.34 11.96 8 14 C5.66635648 11.07096942 3.95039164 8.11431797 2.3125 4.75 C1.65701172 3.41195313 1.65701172 3.41195313 0.98828125 2.046875 C0.66214844 1.37140625 0.33601563 0.6959375 0 0 Z " fill="#26929C" transform="translate(503,430)"/>
<path d="M0 0 C0.66 0.33 1.32 0.66 2 1 C1.21718695 2.33855056 0.42348123 3.67073644 -0.375 5 C-0.81585938 5.7425 -1.25671875 6.485 -1.7109375 7.25 C-2.34902344 8.11625 -2.34902344 8.11625 -3 9 C-3.66 9 -4.32 9 -5 9 C-5.99 7.02 -6.98 5.04 -8 3 C-5.525 3.495 -5.525 3.495 -3 4 C-2.01 2.68 -1.02 1.36 0 0 Z " fill="#DBF9FB" transform="translate(177,368)"/>
<path d="M0 0 C0.33 0.99 0.66 1.98 1 3 C-0.62339805 4.70884005 -2.29319053 6.37446717 -4 8 C-4.66 8 -5.32 8 -6 8 C-6 8.66 -6 9.32 -6 10 C-7.32 10.33 -8.64 10.66 -10 11 C-6.79239749 7.19364503 -3.59253891 3.45436433 0 0 Z " fill="#D2F8F8" transform="translate(317,500)"/>
<path d="M0 0 C0.33 0.66 0.66 1.32 1 2 C0.09373216 3.2989839 -0.82549537 4.58893167 -1.75 5.875 C-2.26046875 6.59429687 -2.7709375 7.31359375 -3.296875 8.0546875 C-5.11157337 10.12743931 -6.40150567 11.10996454 -9 12 C-9.99 11.67 -10.98 11.34 -12 11 C-11.38511719 10.54109375 -10.77023437 10.0821875 -10.13671875 9.609375 C-9.32847656 8.99578125 -8.52023437 8.3821875 -7.6875 7.75 C-6.88699219 7.14671875 -6.08648437 6.5434375 -5.26171875 5.921875 C-3.11450388 4.09729864 -1.58398701 2.31702954 0 0 Z " fill="#D5F6F8" transform="translate(432,446)"/>
<path d="M0 0 C0.66 0.33 1.32 0.66 2 1 C2 1.66 2 2.32 2 3 C2.99 2.67 3.98 2.34 5 2 C5.28875 2.639375 5.5775 3.27875 5.875 3.9375 C6.82823451 6.15206079 6.82823451 6.15206079 9 7 C8.67 7.99 8.34 8.98 8 10 C5.03 7.36 2.06 4.72 -1 2 C-0.67 1.34 -0.34 0.68 0 0 Z " fill="#339C9D" transform="translate(362,370)"/>
<path d="M0 0 C0.33 0.66 0.66 1.32 1 2 C-3.625 7.875 -3.625 7.875 -7 9 C-7.33 7.35 -7.66 5.7 -8 4 C-6.68 4.33 -5.36 4.66 -4 5 C-2.68 3.35 -1.36 1.7 0 0 Z " fill="#DEF9F8" transform="translate(677,463)"/>
<path d="M0 0 C0.66 0 1.32 0 2 0 C2 0.66 2 1.32 2 2 C2.99 2.33 3.98 2.66 5 3 C5 3.99 5 4.98 5 6 C5.66 6 6.32 6 7 6 C7.33 7.98 7.66 9.96 8 12 C4.78119883 8.2064129 2.3836813 4.34170523 0 0 Z " fill="#D1F6F7" transform="translate(152,345)"/>
<path d="M0 0 C3.80013925 1.49291185 5.74918216 3.62377323 8 7 C8 8.32 8 9.64 8 11 C7.34 11 6.68 11 6 11 C5.18697675 9.54195831 4.37459869 8.08355685 3.5625 6.625 C3.11003906 5.81289063 2.65757812 5.00078125 2.19140625 4.1640625 C1.4349464 2.79003378 0.70145369 1.40290739 0 0 Z " fill="#D9F7F8" transform="translate(515,414)"/>
<path d="M0 0 C0.66 0.33 1.32 0.66 2 1 C0.02 3.97 -1.96 6.94 -4 10 C-4.66 9.01 -5.32 8.02 -6 7 C-5.01 6.67 -4.02 6.34 -3 6 C-2.87625 5.195625 -2.7525 4.39125 -2.625 3.5625 C-2.41875 2.716875 -2.2125 1.87125 -2 1 C-1.34 0.67 -0.68 0.34 0 0 Z " fill="#DBFBF9" transform="translate(493,394)"/>
<path d="M0 0 C2.94721162 2.74395564 5.19168608 5.38337216 7 9 C6.67 9.66 6.34 10.32 6 11 C5.34 9.68 4.68 8.36 4 7 C3.01 7 2.02 7 1 7 C0.67 4.69 0.34 2.38 0 0 Z " fill="#2A949F" transform="translate(137,323)"/>
<path d="M0 0 C0.33 0.99 0.66 1.98 1 3 C-0.28062485 4.7074998 -1.61767557 6.37373596 -3 8 C-3.33 8.99 -3.66 9.98 -4 11 C-4.66 11 -5.32 11 -6 11 C-4.54955729 6.89041233 -2.48889248 3.56741255 0 0 Z " fill="#DAF9FB" transform="translate(197,376)"/>
<path d="M0 0 C3.96 1.98 3.96 1.98 8 4 C6.02 4.99 6.02 4.99 4 6 C3.01 5.67 2.02 5.34 1 5 C0.67 3.35 0.34 1.7 0 0 Z " fill="#DAF6F7" transform="translate(364,456)"/>
<path d="M0 0 C2.64465038 3.1254959 3.84414715 6.08788267 5 10 C4.01 9.67 3.02 9.34 2 9 C2 8.01 2 7.02 2 6 C1.34 6 0.68 6 0 6 C0 4.02 0 2.04 0 0 Z " fill="#D6F6F8" transform="translate(505,434)"/>
<path d="M0 0 C1.32 0.66 2.64 1.32 4 2 C2.61410019 5.09162264 1.50816459 6.49183541 -1 9 C-0.67 6.03 -0.34 3.06 0 0 Z " fill="#31969A" transform="translate(531,366)"/>
<path d="M0 0 C0.66 1.32 1.32 2.64 2 4 C0.35 5.32 -1.3 6.64 -3 8 C-3.66 7.67 -4.32 7.34 -5 7 C-3.35 4.69 -1.7 2.38 0 0 Z " fill="#2897A0" transform="translate(508,374)"/>
<path d="M0 0 C0.33 1.32 0.66 2.64 1 4 C0.01 4.33 -0.98 4.66 -2 5 C-3.21869929 7.50447516 -3.21869929 7.50447516 -4 10 C-4.66 9.67 -5.32 9.34 -6 9 C-4.02 6.03 -2.04 3.06 0 0 Z " fill="#259199" transform="translate(181,365)"/>
<path d="M0 0 C0.66 1.32 1.32 2.64 2 4 C0.1875 5.5625 0.1875 5.5625 -2 7 C-2.99 6.67 -3.98 6.34 -5 6 C-3.35 4.02 -1.7 2.04 0 0 Z " fill="#DDFCFA" transform="translate(634,455)"/>
<path d="M0 0 C3.465 1.485 3.465 1.485 7 3 C6.67 3.99 6.34 4.98 6 6 C5.34 6 4.68 6 4 6 C4 5.34 4 4.68 4 4 C2.68 4 1.36 4 0 4 C0 2.68 0 1.36 0 0 Z " fill="#279493" transform="translate(628,450)"/>
<path d="M0 0 C2.64 0.33 5.28 0.66 8 1 C6 3 6 3 4.0546875 3.1953125 C2.03645833 3.13020833 0.01822917 3.06510417 -2 3 C-1.34 2.67 -0.68 2.34 0 2 C0 1.34 0 0.68 0 0 Z " fill="#C3ECEF" transform="translate(288,443)"/>
<path d="M0 0 C1.32 0.33 2.64 0.66 4 1 C4.33 3.31 4.66 5.62 5 8 C2.27573689 5.64722731 1.1858237 3.37503669 0 0 Z " fill="#2E96A2" transform="translate(351,440)"/>
<path d="M0 0 C2.83374881 3.20336822 3.5205537 5.78087253 4 10 C1.2027092 7.93243723 0.97307727 6.85559629 0.3125 3.3125 C0.209375 2.219375 0.10625 1.12625 0 0 Z " fill="#319798" transform="translate(433,404)"/>
<path d="M0 0 C1 3 1 3 0.3125 5.5625 C-1.16086774 8.29875437 -2.13522966 8.94958421 -5 10 C-3.66511872 6.40608886 -2.03977277 3.24509304 0 0 Z " fill="#2D989F" transform="translate(198,338)"/>
<path d="M0 0 C1.32 0.33 2.64 0.66 4 1 C2.35 2.65 0.7 4.3 -1 6 C-1.99 5.67 -2.98 5.34 -4 5 C-2.68 3.35 -1.36 1.7 0 0 Z " fill="#29979E" transform="translate(365,324)"/>
<path d="M0 0 C4.875 4.75 4.875 4.75 6 7 C3.5625 6.3125 3.5625 6.3125 1 5 C0.1875 2.375 0.1875 2.375 0 0 Z " fill="#DCF8F8" transform="translate(260,449)"/>
<path d="M0 0 C1.32 0.33 2.64 0.66 4 1 C2.68 2.65 1.36 4.3 0 6 C-0.66 4.68 -1.32 3.36 -2 2 C-1.34 2 -0.68 2 0 2 C0 1.34 0 0.68 0 0 Z " fill="#2C9497" transform="translate(173,408)"/>
<path d="M0 0 C2.72426311 2.35277269 3.8141763 4.62496331 5 8 C4.01 8 3.02 8 2 8 C2 7.34 2 6.68 2 6 C1.34 5.67 0.68 5.34 0 5 C0 3.33333333 0 1.66666667 0 0 Z " fill="#DAF5F6" transform="translate(156,388)"/>
<path d="M0 0 C0.33 0.66 0.66 1.32 1 2 C1.99 2 2.98 2 4 2 C4 3.98 4 5.96 4 8 C1.47411298 5.63707344 0.11179163 4.33537489 -1 1 C-0.67 0.67 -0.34 0.34 0 0 Z " fill="#28969A" transform="translate(139,358)"/>
</svg>
