<?xml version="1.0" encoding="UTF-8"?>
<!DOCTYPE svg PUBLIC "-//W3C//DTD SVG 1.1//EN" "http://www.w3.org/Graphics/SVG/1.1/DTD/svg11.dtd">
<svg xmlns="http://www.w3.org/2000/svg" version="1.1" width="604px" height="413px" style="shape-rendering:geometricPrecision; text-rendering:geometricPrecision; image-rendering:optimizeQuality; fill-rule:evenodd; clip-rule:evenodd" xmlns:xlink="http://www.w3.org/1999/xlink">
<g><path style="opacity:0.729" fill="#696969" d="M 322.5,74.5 C 308.816,74.3289 295.149,74.6622 281.5,75.5C 295.189,72.6205 308.855,72.2871 322.5,74.5 Z"/></g>
<g><path style="opacity:1" fill="#e0e0e0" d="M 322.5,74.5 C 333.35,75.5685 343.684,78.2351 353.5,82.5C 355.426,84.2927 357.759,85.2927 360.5,85.5C 380.317,93.6476 396.65,106.314 409.5,123.5C 410.08,125.749 411.413,127.415 413.5,128.5C 414.906,128.973 415.573,129.973 415.5,131.5C 412.713,132.477 409.713,132.81 406.5,132.5C 390.386,111.711 370.052,96.7107 345.5,87.5C 343.898,85.9261 341.898,85.2594 339.5,85.5C 337.562,83.8372 335.228,83.1706 332.5,83.5C 311.337,79.0749 290.337,79.7415 269.5,85.5C 267.102,85.2594 265.102,85.9261 263.5,87.5C 238.898,96.4451 218.898,111.445 203.5,132.5C 199.988,133.055 196.988,132.388 194.5,130.5C 199.111,123.556 204.445,117.222 210.5,111.5C 212.749,110.92 214.415,109.587 215.5,107.5C 226.32,96.6994 238.987,88.6994 253.5,83.5C 256.397,82.871 259.064,81.871 261.5,80.5C 263.701,79.4336 266.035,78.767 268.5,78.5C 272.163,78.0482 275.83,77.5482 279.5,77C 280.416,76.7216 281.082,76.2216 281.5,75.5C 295.149,74.6622 308.816,74.3289 322.5,74.5 Z"/></g>
<g><path style="opacity:0.765" fill="#949494" d="M 281.5,75.5 C 281.082,76.2216 280.416,76.7216 279.5,77C 275.83,77.5482 272.163,78.0482 268.5,78.5C 272.515,76.6268 276.849,75.6268 281.5,75.5 Z"/></g>
<g><path style="opacity:0.478" fill="#484849" d="M 261.5,80.5 C 259.064,81.871 256.397,82.871 253.5,83.5C 255.617,81.3455 258.284,80.3455 261.5,80.5 Z"/></g>
<g><path style="opacity:0.729" fill="#7f7f7f" d="M 332.5,83.5 C 335.228,83.1706 337.562,83.8372 339.5,85.5C 336.933,85.2785 334.599,84.6118 332.5,83.5 Z"/></g>
<g><path style="opacity:0.31" fill="#626262" d="M 353.5,82.5 C 356.241,82.7073 358.574,83.7073 360.5,85.5C 357.759,85.2927 355.426,84.2927 353.5,82.5 Z"/></g>
<g><path style="opacity:0.612" fill="#626264" d="M 339.5,85.5 C 341.898,85.2594 343.898,85.9261 345.5,87.5C 343.214,87.405 341.214,86.7384 339.5,85.5 Z"/></g>
<g><path style="opacity:0.192" fill="#515151" d="M 269.5,85.5 C 267.786,86.7384 265.786,87.405 263.5,87.5C 265.102,85.9261 267.102,85.2594 269.5,85.5 Z"/></g>
<g><path style="opacity:0.792" fill="#898989" d="M 215.5,107.5 C 214.415,109.587 212.749,110.92 210.5,111.5C 211.585,109.413 213.251,108.08 215.5,107.5 Z"/></g>
<g><path style="opacity:0.8" fill="#787879" d="M 409.5,123.5 C 411.587,124.585 412.92,126.251 413.5,128.5C 411.413,127.415 410.08,125.749 409.5,123.5 Z"/></g>
<g><path style="opacity:0.229" fill="#494949" d="M 194.5,130.5 C 196.988,132.388 199.988,133.055 203.5,132.5C 199.981,133.808 196.315,133.808 192.5,132.5C 192.855,131.478 193.522,130.811 194.5,130.5 Z"/></g>
<g><path style="opacity:0.229" fill="#4c4c4c" d="M 415.5,131.5 C 416.043,131.56 416.376,131.893 416.5,132.5C 413.02,133.806 409.687,133.806 406.5,132.5C 409.713,132.81 412.713,132.477 415.5,131.5 Z"/></g>
<g><path style="opacity:0.459" fill="#6f6f71" d="M 392.5,158.5 C 380.18,157.783 367.847,157.449 355.5,157.5C 354.833,157.5 354.167,157.5 353.5,157.5C 356.121,156.489 358.621,155.822 361,155.5C 371.643,156.015 382.143,157.015 392.5,158.5 Z"/></g>
<g><path style="opacity:1" fill="#fbfbfb" d="M 355.5,157.5 C 367.847,157.449 380.18,157.783 392.5,158.5C 399.304,159.325 405.637,161.325 411.5,164.5C 412.514,165.674 413.847,166.34 415.5,166.5C 420.743,168.625 425.077,171.958 428.5,176.5C 428.833,177.5 429.5,178.167 430.5,178.5C 430.427,180.027 431.094,181.027 432.5,181.5C 434.924,184.008 436.59,187.008 437.5,190.5C 437.41,193.152 438.076,195.485 439.5,197.5C 439.631,198.376 439.298,199.043 438.5,199.5C 436.664,200.028 434.997,200.694 433.5,201.5C 426.633,203.633 419.633,205.3 412.5,206.5C 406.545,207.073 400.878,208.407 395.5,210.5C 395.167,210.5 394.833,210.5 394.5,210.5C 393.209,210.263 392.209,210.596 391.5,211.5C 391.167,211.5 390.833,211.5 390.5,211.5C 388.897,211.312 387.563,211.812 386.5,213C 403.83,213.5 421.163,213.667 438.5,213.5C 438.5,227.833 438.5,242.167 438.5,256.5C 420.5,256.5 402.5,256.5 384.5,256.5C 384.83,238.992 384.497,221.659 383.5,204.5C 381.425,201.421 378.758,199.088 375.5,197.5C 371.019,196.352 366.352,196.185 361.5,197C 360.584,197.278 359.918,197.778 359.5,198.5C 357.858,199.803 356.191,201.136 354.5,202.5C 352.466,204.655 352.133,206.988 353.5,209.5C 355.011,213.176 357.677,215.676 361.5,217C 368.851,218.215 375.851,217.382 382.5,214.5C 383.625,215.348 383.625,216.348 382.5,217.5C 380.869,222.024 379.869,226.691 379.5,231.5C 377.837,233.438 377.171,235.772 377.5,238.5C 377.233,240.965 376.566,243.299 375.5,245.5C 374.596,246.209 374.263,247.209 374.5,248.5C 374.5,248.833 374.5,249.167 374.5,249.5C 373.076,251.515 372.41,253.848 372.5,256.5C 372.5,257.5 372.5,258.5 372.5,259.5C 361.636,261.07 350.97,260.736 340.5,258.5C 339.081,257.549 337.415,257.216 335.5,257.5C 333.901,257.768 332.568,257.434 331.5,256.5C 329.824,254.166 327.491,253.166 324.5,253.5C 324.027,252.094 323.027,251.427 321.5,251.5C 320.508,251.672 319.842,251.338 319.5,250.5C 319.027,249.094 318.027,248.427 316.5,248.5C 315.415,246.413 313.749,245.08 311.5,244.5C 305.769,239.419 302.102,233.085 300.5,225.5C 299.227,214.826 299.227,204.159 300.5,193.5C 300.433,192.041 300.766,190.708 301.5,189.5C 303.245,187.967 304.245,185.967 304.5,183.5C 306.262,182.738 307.262,181.404 307.5,179.5C 308.5,177.833 309.833,176.5 311.5,175.5C 313.5,174.167 315.167,172.5 316.5,170.5C 317.899,169.11 319.566,168.11 321.5,167.5C 323.027,167.573 324.027,166.906 324.5,165.5C 328.533,164.975 332.2,163.642 335.5,161.5C 337.515,160.076 339.848,159.41 342.5,159.5C 347.1,159.72 351.433,159.054 355.5,157.5 Z M 375.5,197.5 C 378.758,199.088 381.425,201.421 383.5,204.5C 383.747,207.939 383.414,211.272 382.5,214.5C 375.851,217.382 368.851,218.215 361.5,217C 357.677,215.676 355.011,213.176 353.5,209.5C 354.12,207.631 354.453,205.298 354.5,202.5C 356.191,201.136 357.858,199.803 359.5,198.5C 364.787,197.658 370.12,197.324 375.5,197.5 Z"/></g>
<g><path style="opacity:0.969" fill="#acacae" d="M 353.5,157.5 C 354.167,157.5 354.833,157.5 355.5,157.5C 351.433,159.054 347.1,159.72 342.5,159.5C 345.909,158.097 349.575,157.43 353.5,157.5 Z"/></g>
<g><path style="opacity:0.133" fill="#303030" d="M 268.5,160.5 C 269.779,159.285 270.779,159.618 271.5,161.5C 270.391,161.443 269.391,161.11 268.5,160.5 Z"/></g>
<g><path style="opacity:1" fill="#fbfbfc" d="M 268.5,160.5 C 269.391,161.11 270.391,161.443 271.5,161.5C 277.802,161.652 283.136,163.985 287.5,168.5C 288.419,171.089 290.086,173.089 292.5,174.5C 295.624,178.55 296.957,183.217 296.5,188.5C 296.024,201.64 289.69,210.64 277.5,215.5C 273.915,216.583 270.249,217.249 266.5,217.5C 260.794,217.171 255.128,217.505 249.5,218.5C 259.893,219.189 270.227,219.856 280.5,220.5C 283.674,225.516 286.341,230.849 288.5,236.5C 288.427,238.027 289.094,239.027 290.5,239.5C 293.674,244.516 296.341,249.849 298.5,255.5C 278.34,256.497 258.007,256.83 237.5,256.5C 237.737,255.209 237.404,254.209 236.5,253.5C 234.654,250.46 233.321,247.127 232.5,243.5C 232.585,240.351 231.585,237.684 229.5,235.5C 229.598,233.447 228.931,231.78 227.5,230.5C 226.216,227.598 225.216,224.598 224.5,221.5C 224.631,220.624 224.298,219.957 223.5,219.5C 222.501,231.815 222.168,244.149 222.5,256.5C 204.833,256.5 187.167,256.5 169.5,256.5C 169.5,224.5 169.5,192.5 169.5,160.5C 202.5,160.5 235.5,160.5 268.5,160.5 Z M 243.5,201.5 C 244.167,202.833 245.167,203.833 246.5,204.5C 247.219,206.764 247.552,209.097 247.5,211.5C 245.954,214.2 243.621,216.033 240.5,217C 234.843,217.499 229.176,217.666 223.5,217.5C 223.5,211.833 223.5,206.167 223.5,200.5C 230.202,200.336 236.869,200.669 243.5,201.5 Z"/></g>
<g><path style="opacity:0.949" fill="#979699" d="M 335.5,161.5 C 332.2,163.642 328.533,164.975 324.5,165.5C 327.66,163 331.327,161.667 335.5,161.5 Z"/></g>
<g><path style="opacity:0.243" fill="#5c5c60" d="M 411.5,164.5 C 413.38,164.229 414.713,164.896 415.5,166.5C 413.847,166.34 412.514,165.674 411.5,164.5 Z"/></g>
<g><path style="opacity:0.671" fill="#747475" d="M 324.5,165.5 C 324.027,166.906 323.027,167.573 321.5,167.5C 321.973,166.094 322.973,165.427 324.5,165.5 Z"/></g>
<g><path style="opacity:0.725" fill="#666667" d="M 287.5,168.5 C 289.914,169.911 291.581,171.911 292.5,174.5C 290.086,173.089 288.419,171.089 287.5,168.5 Z"/></g>
<g><path style="opacity:0.553" fill="#6a6a6b" d="M 316.5,170.5 C 315.167,172.5 313.5,174.167 311.5,175.5C 312.167,172.833 313.833,171.167 316.5,170.5 Z"/></g>
<g><path style="opacity:0.012" fill="#2d2d2d" d="M 428.5,176.5 C 429.833,176.5 430.5,177.167 430.5,178.5C 429.5,178.167 428.833,177.5 428.5,176.5 Z"/></g>
<g><path style="opacity:0.757" fill="#717171" d="M 307.5,179.5 C 307.262,181.404 306.262,182.738 304.5,183.5C 304.738,181.596 305.738,180.262 307.5,179.5 Z"/></g>
<g><path style="opacity:0.376" fill="#5a5a5a" d="M 430.5,178.5 C 431.906,178.973 432.573,179.973 432.5,181.5C 431.094,181.027 430.427,180.027 430.5,178.5 Z"/></g>
<g><path style="opacity:0.804" fill="#636365" d="M 304.5,183.5 C 304.245,185.967 303.245,187.967 301.5,189.5C 301.461,186.911 302.461,184.911 304.5,183.5 Z"/></g>
<g><path style="opacity:0.318" fill="#7c7c7c" d="M 375.5,197.5 C 370.12,197.324 364.787,197.658 359.5,198.5C 359.918,197.778 360.584,197.278 361.5,197C 366.352,196.185 371.019,196.352 375.5,197.5 Z"/></g>
<g><path style="opacity:0.294" fill="#4c4c4d" d="M 437.5,190.5 C 438.924,192.515 439.59,194.848 439.5,197.5C 438.076,195.485 437.41,193.152 437.5,190.5 Z"/></g>
<g><path style="opacity:0.234" fill="#626263" d="M 243.5,201.5 C 236.869,200.669 230.202,200.336 223.5,200.5C 223.5,206.167 223.5,211.833 223.5,217.5C 222.51,211.69 222.177,205.69 222.5,199.5C 228.842,199.334 235.175,199.5 241.5,200C 242.416,200.278 243.082,200.778 243.5,201.5 Z"/></g>
<g><path style="opacity:0.067" fill="#434344" d="M 439.5,197.5 C 440.776,198.386 440.776,199.386 439.5,200.5C 437.591,201.348 435.591,201.682 433.5,201.5C 434.997,200.694 436.664,200.028 438.5,199.5C 439.298,199.043 439.631,198.376 439.5,197.5 Z"/></g>
<g><path style="opacity:0.596" fill="#545454" d="M 243.5,201.5 C 245.5,201.5 246.5,202.5 246.5,204.5C 245.167,203.833 244.167,202.833 243.5,201.5 Z"/></g>
<g><path style="opacity:0.365" fill="#4d4d4d" d="M 354.5,202.5 C 354.453,205.298 354.12,207.631 353.5,209.5C 352.133,206.988 352.466,204.655 354.5,202.5 Z"/></g>
<g><path style="opacity:0.327" fill="#686868" d="M 246.5,204.5 C 247.993,205.312 248.66,206.645 248.5,208.5C 248.48,209.726 248.147,210.726 247.5,211.5C 247.552,209.097 247.219,206.764 246.5,204.5 Z"/></g>
<g><path style="opacity:0.999" fill="#aaaaaa" d="M 300.5,193.5 C 299.227,204.159 299.227,214.826 300.5,225.5C 296.543,214.819 296.543,204.152 300.5,193.5 Z"/></g>
<g><path style="opacity:0.029" fill="#3e3e3f" d="M 412.5,206.5 C 407.117,208.618 401.451,209.952 395.5,210.5C 400.878,208.407 406.545,207.073 412.5,206.5 Z"/></g>
<g><path style="opacity:0.01" fill="#191919" d="M 394.5,210.5 C 398.167,211.167 401.833,211.833 405.5,212.5C 400.833,212.5 396.167,212.5 391.5,212.5C 391.5,212.167 391.5,211.833 391.5,211.5C 392.209,210.596 393.209,210.263 394.5,210.5 Z"/></g>
<g><path style="opacity:0.511" fill="#7b7b7d" d="M 390.5,211.5 C 390.5,212.167 390.833,212.5 391.5,212.5C 396.167,212.5 400.833,212.5 405.5,212.5C 416.704,212.171 427.704,212.171 438.5,212.5C 438.5,212.833 438.5,213.167 438.5,213.5C 421.163,213.667 403.83,213.5 386.5,213C 387.563,211.812 388.897,211.312 390.5,211.5 Z"/></g>
<g><path style="opacity:0.059" fill="#292929" d="M 277.5,215.5 C 277.082,216.222 276.416,216.722 275.5,217C 277.058,217.21 278.391,217.71 279.5,218.5C 277.833,218.5 276.167,218.5 274.5,218.5C 273.833,217.167 273.167,217.167 272.5,218.5C 270.265,218.795 268.265,218.461 266.5,217.5C 270.249,217.249 273.915,216.583 277.5,215.5 Z"/></g>
<g><path style="opacity:0.562" fill="#a0a0a0" d="M 266.5,217.5 C 268.265,218.461 270.265,218.795 272.5,218.5C 273.167,218.5 273.833,218.5 274.5,218.5C 276.167,218.5 277.833,218.5 279.5,218.5C 280.338,218.842 280.672,219.508 280.5,220.5C 270.227,219.856 259.893,219.189 249.5,218.5C 255.128,217.505 260.794,217.171 266.5,217.5 Z"/></g>
<g><path style="opacity:0.012" fill="#1b1b1c" d="M 382.5,217.5 C 383.495,228.321 383.828,239.321 383.5,250.5C 382.671,242.343 382.171,234.01 382,225.5C 381.155,227.611 380.322,229.611 379.5,231.5C 379.869,226.691 380.869,222.024 382.5,217.5 Z"/></g>
<g><path style="opacity:0.157" fill="#3d3d40" d="M 227.5,230.5 C 228.931,231.78 229.598,233.447 229.5,235.5C 228.069,234.22 227.402,232.553 227.5,230.5 Z"/></g>
<g><path style="opacity:0.184" fill="#4c4c4e" d="M 379.5,231.5 C 379.034,233.201 379.034,234.701 379.5,236C 378.934,236.995 378.267,237.828 377.5,238.5C 377.171,235.772 377.837,233.438 379.5,231.5 Z"/></g>
<g><path style="opacity:0.294" fill="#59585a" d="M 229.5,235.5 C 231.585,237.684 232.585,240.351 232.5,243.5C 230.98,241.11 229.98,238.443 229.5,235.5 Z"/></g>
<g><path style="opacity:0.29" fill="#595959" d="M 288.5,236.5 C 289.906,236.973 290.573,237.973 290.5,239.5C 289.094,239.027 288.427,238.027 288.5,236.5 Z"/></g>
<g><path style="opacity:0.765" fill="#6f6f6f" d="M 311.5,244.5 C 313.749,245.08 315.415,246.413 316.5,248.5C 314.251,247.92 312.585,246.587 311.5,244.5 Z"/></g>
<g><path style="opacity:0.314" fill="#4c4c4c" d="M 375.5,245.5 C 375.938,245.435 376.272,245.601 376.5,246C 375.934,246.995 375.267,247.828 374.5,248.5C 374.263,247.209 374.596,246.209 375.5,245.5 Z"/></g>
<g><path style="opacity:0.518" fill="#7e7e84" d="M 316.5,248.5 C 318.027,248.427 319.027,249.094 319.5,250.5C 317.973,250.573 316.973,249.906 316.5,248.5 Z"/></g>
<g><path style="opacity:0.486" fill="#777777" d="M 321.5,251.5 C 323.027,251.427 324.027,252.094 324.5,253.5C 322.973,253.573 321.973,252.906 321.5,251.5 Z"/></g>
<g><path style="opacity:0.91" fill="#8d8d8d" d="M 324.5,253.5 C 327.491,253.166 329.824,254.166 331.5,256.5C 328.843,256.065 326.509,255.065 324.5,253.5 Z"/></g>
<g><path style="opacity:0.098" fill="#414141" d="M 374.5,249.5 C 374.938,249.435 375.272,249.601 375.5,250C 374.578,252.294 373.578,254.461 372.5,256.5C 372.41,253.848 373.076,251.515 374.5,249.5 Z"/></g>
<g><path style="opacity:0.401" fill="#7e7e7f" d="M 224.5,221.5 C 223.647,233.153 223.313,245.153 223.5,257.5C 205.326,257.83 187.326,257.497 169.5,256.5C 187.167,256.5 204.833,256.5 222.5,256.5C 222.168,244.149 222.501,231.815 223.5,219.5C 224.298,219.957 224.631,220.624 224.5,221.5 Z"/></g>
<g><path style="opacity:0.402" fill="#707071" d="M 236.5,253.5 C 237.404,254.209 237.737,255.209 237.5,256.5C 258.007,256.83 278.34,256.497 298.5,255.5C 299.043,255.56 299.376,255.893 299.5,256.5C 278.511,257.5 257.511,257.833 236.5,257.5C 236.5,256.167 236.5,254.833 236.5,253.5 Z"/></g>
<g><path style="opacity:0.398" fill="#636364" d="M 383.5,204.5 C 384.497,221.659 384.83,238.992 384.5,256.5C 402.5,256.5 420.5,256.5 438.5,256.5C 438.5,242.167 438.5,227.833 438.5,213.5C 438.5,213.167 438.5,212.833 438.5,212.5C 439.496,227.324 439.829,242.324 439.5,257.5C 420.833,257.5 402.167,257.5 383.5,257.5C 383.5,255.167 383.5,252.833 383.5,250.5C 383.828,239.321 383.495,228.321 382.5,217.5C 383.625,216.348 383.625,215.348 382.5,214.5C 383.414,211.272 383.747,207.939 383.5,204.5 Z"/></g>
<g><path style="opacity:0.902" fill="#7f7f7f" d="M 335.5,257.5 C 337.415,257.216 339.081,257.549 340.5,258.5C 338.741,259.261 337.074,258.928 335.5,257.5 Z"/></g>
<g><path style="opacity:0.109" fill="#2d2d2f" d="M 202.5,284.5 C 199.287,284.19 196.287,284.523 193.5,285.5C 192.957,285.44 192.624,285.107 192.5,284.5C 195.98,283.194 199.313,283.194 202.5,284.5 Z"/></g>
<g><path style="opacity:0.122" fill="#2e2e34" d="M 406.5,284.5 C 409.687,283.194 413.02,283.194 416.5,284.5C 416.376,285.107 416.043,285.44 415.5,285.5C 412.713,284.523 409.713,284.19 406.5,284.5 Z"/></g>
<g><path style="opacity:1" fill="#e0e0e0" d="M 202.5,284.5 C 204.587,285.585 205.92,287.251 206.5,289.5C 207.08,291.749 208.413,293.415 210.5,294.5C 227.886,312.559 248.552,325.225 272.5,332.5C 275.507,334.175 278.84,334.841 282.5,334.5C 283.609,335.29 284.942,335.79 286.5,336C 291.155,336.499 295.821,336.666 300.5,336.5C 303.167,336.5 305.833,336.5 308.5,336.5C 312.846,336.666 317.179,336.499 321.5,336C 323.058,335.79 324.391,335.29 325.5,334.5C 325.833,334.5 326.167,334.5 326.5,334.5C 330.489,334.884 334.155,334.217 337.5,332.5C 365.493,323.671 388.493,307.671 406.5,284.5C 409.713,284.19 412.713,284.523 415.5,285.5C 400.138,308.527 379.472,324.86 353.5,334.5C 351.102,334.259 349.102,334.926 347.5,336.5C 339.22,339.626 330.553,341.626 321.5,342.5C 310.167,342.5 298.833,342.5 287.5,342.5C 280.677,341.802 274.011,340.469 267.5,338.5C 264.916,336.528 261.916,335.528 258.5,335.5C 252.173,333.398 246.173,330.731 240.5,327.5C 240.027,326.094 239.027,325.427 237.5,325.5C 231.631,323.404 226.631,320.071 222.5,315.5C 221.415,313.413 219.749,312.08 217.5,311.5C 207.745,304.413 199.745,295.746 193.5,285.5C 196.287,284.523 199.287,284.19 202.5,284.5 Z"/></g>
<g><path style="opacity:0.792" fill="#838383" d="M 206.5,289.5 C 208.587,290.585 209.92,292.251 210.5,294.5C 208.413,293.415 207.08,291.749 206.5,289.5 Z"/></g>
<g><path style="opacity:0.82" fill="#7b7b7d" d="M 217.5,311.5 C 219.749,312.08 221.415,313.413 222.5,315.5C 220.251,314.92 218.585,313.587 217.5,311.5 Z"/></g>
<g><path style="opacity:0.412" fill="#6c6c6c" d="M 237.5,325.5 C 239.027,325.427 240.027,326.094 240.5,327.5C 238.973,327.573 237.973,326.906 237.5,325.5 Z"/></g>
<g><path style="opacity:0.282" fill="#55555a" d="M 272.5,332.5 C 276.04,332.753 279.373,333.419 282.5,334.5C 278.84,334.841 275.507,334.175 272.5,332.5 Z"/></g>
<g><path style="opacity:0.827" fill="#858587" d="M 337.5,332.5 C 334.155,334.217 330.489,334.884 326.5,334.5C 329.946,333.313 333.613,332.646 337.5,332.5 Z"/></g>
<g><path style="opacity:0.486" fill="#666666" d="M 353.5,334.5 C 351.786,335.738 349.786,336.405 347.5,336.5C 349.102,334.926 351.102,334.259 353.5,334.5 Z"/></g>
<g><path style="opacity:0.694" fill="#69696b" d="M 258.5,335.5 C 261.916,335.528 264.916,336.528 267.5,338.5C 264.215,338.072 261.215,337.072 258.5,335.5 Z"/></g>
<g><path style="opacity:0.533" fill="#676768" d="M 282.5,334.5 C 288.678,334.844 294.678,335.511 300.5,336.5C 295.821,336.666 291.155,336.499 286.5,336C 284.942,335.79 283.609,335.29 282.5,334.5 Z"/></g>
<g><path style="opacity:0.671" fill="#707071" d="M 325.5,334.5 C 324.391,335.29 323.058,335.79 321.5,336C 317.179,336.499 312.846,336.666 308.5,336.5C 313.994,335.565 319.661,334.898 325.5,334.5 Z"/></g>
<g><path style="opacity:0.596" fill="#8a8a8b" d="M 287.5,342.5 C 298.833,342.5 310.167,342.5 321.5,342.5C 310.266,344.696 298.932,344.696 287.5,342.5 Z"/></g>
</svg>
